<svg height="168.676859" viewBox="0 0 717.10101 204.2" width="592.849549" xmlns="http://www.w3.org/2000/svg"><g fill="#006d46" transform="translate(-141.4 -397.9)"><g><path d="m401.4 495.1v-37.8h-10.5v38.4c0 8.6-3.2 11.2-8.5 11.2-2.6 0-4.6-.4-6.5-1l-.9 8.4c2 .5 4.2.8 6.7.8 16.3 0 19.7-9.8 19.7-20z"/><path d="m491.6 451.2c3 0 5.3-2.5 5.3-5.4 0-3-2.3-5.4-5.3-5.4s-5.3 2.5-5.3 5.4c0 3 2.3 5.4 5.3 5.4z"/><path d="m498.1 439.9c2.8 0 4.9-2.2 4.9-5s-2.2-5-4.9-5-4.9 2.2-4.9 5c.1 2.8 2.2 5 4.9 5z"/><path d="m499.5 445.8c0 3 2.3 5.4 5.3 5.4s5.3-2.5 5.3-5.4c0-3-2.3-5.4-5.3-5.4s-5.3 2.4-5.3 5.4z"/><path d="m519.9 451.2c3 0 5.3-2.5 5.3-5.4 0-3-2.3-5.4-5.3-5.4s-5.3 2.5-5.3 5.4c0 3 2.4 5.4 5.3 5.4z"/><path d="m533.2 451.2c3 0 5.3-2.5 5.3-5.4 0-3-2.3-5.4-5.3-5.4s-5.3 2.5-5.3 5.4c0 3 2.3 5.4 5.3 5.4z"/><path d="m604.2 476.2c0-7.9-1-15.7-2.6-22.1l-10.3 1.4c1.4 6.1 2.3 13.4 2.3 21.4 0 2.5-.2 6.4-.6 9.6h-2.8c-7 0-8.8-2.2-8.8-8.9v-18.8h-10.1v19.2c0 5.7-1.3 9.2-5.9 9.2-4.7 0-6.1-3.3-6.1-9.3v-15.8h-10.3v14.4c0 7.9-2 10-7.2 10h-1.4-1.2-5.9v-29.2h-10.5v29.2h-10-1.2-6.6v-29.2h-10.5v29.2h-9.9-1.3-5.5v-11.3c0-11.7-5.6-19-18.4-19-13.4 0-20.4 9.3-20.4 20.7 0 7.3-2.2 9.6-6 9.6h-.4-1.2-6.8v-48h-10.5v56.3h17.3 1.2c4.8 0 8.5-2 10.5-6.1 2.4 3.9 7 6.1 16.4 6.1h23.7 1.3 27 1.2 26.4 1.2 1.3c5.9 0 9.2-2.1 10.6-5.9 1.4 4.2 5.5 6.6 11.3 6.6 5 0 9.7-2.2 11.6-6.6 1.8 4.3 6 5.9 12.9 5.9h15c.7-5.7 1.2-12.8 1.2-18.6zm-136.7 10.3h-6.9c-8.2 0-11.3-3.5-11.3-10.5 0-6.8 3.4-11.4 9.3-11.4s8.9 3.5 8.9 11.9z"/><path d="m650.6 438.5h-10.5v48h-24.7v8.3h35.2z"/><path d="m612.2 439.4 11.4 41.1h10.7l-11.7-42.5z"/><path d="m664.09998 438.5h10.5v56.299999h-10.5z"/><path d="m742.8 494.8v-20.2c0-11.2-5.6-18.4-18-18.4-13.9 0-20.8 9.3-20.8 20.1 0 11.3 5.8 18.4 21.4 18.4h17.4zm-28.3-19.5c0-6.2 3.5-10.8 9.5-10.8 5.3 0 8.5 3.4 8.5 11.3v10.6h-6.1c-8.3.1-11.9-3.6-11.9-11.1z"/><path d="m730.7 451.2c3 0 5.3-2.5 5.3-5.4 0-3-2.3-5.4-5.3-5.4s-5.3 2.5-5.3 5.4c0 3 2.3 5.4 5.3 5.4z"/><path d="m717.4 451.2c3 0 5.3-2.5 5.3-5.4 0-3-2.3-5.4-5.3-5.4s-5.3 2.5-5.3 5.4c.1 3 2.4 5.4 5.3 5.4z"/><path d="m765.1 495.1v-37.8h-10.5v38.4c0 8.6-3.2 11.2-8.5 11.2-2.6 0-4.6-.4-6.5-1l-.9 8.4c2 .5 4.2.8 6.7.8 16.2 0 19.7-9.8 19.7-20z"/><path d="m777.79999 438.5h10.5v56.299999h-10.5z"/><path d="m785.4 514.3c2 .5 4.2.8 6.7.8 16.3 0 19.7-9.7 19.7-20v-37.8h-10.5v38.4c0 8.6-3.2 11.2-8.5 11.2-2.6 0-4.6-.4-6.5-1z"/><path d="m806.6 450.6c3 0 5.5-2.5 5.5-5.5s-2.5-5.5-5.5-5.5-5.5 2.5-5.5 5.5c0 3.1 2.4 5.5 5.5 5.5z"/><path d="m841.9 456.3c-14.7 0-21.2 9.6-21.2 20 0 11.3 5.8 18.5 21.4 18.5h6.2v1.2c0 7.5-5.5 10.6-13.8 10.6-6.2 0-12.5-1.4-12.5-1.4l-.6 8.6s6.1 1 12.1 1c17.9 0 25-8.9 25-20v-35.8c.1 0-7.2-2.7-16.6-2.7zm6.5 30.2h-5.1c-8.4 0-12-3.9-12-11.2 0-6.2 3.5-10.8 9.5-10.8 4.6 0 7.6 1.4 7.6 1.4z"/><path d="m403.1 525.1-5.7 17c-.8 2.4-1.4 4.3-1.9 6.8h-.1c-.4-2.3-1-4.6-1.8-6.9l-5.5-16.9h-7.4l-5.1 33h6.4l1.9-15.2c.4-2.9.7-5.5.9-8.4h.1c.4 2.6 1.2 5.6 2.1 8.3l5 15.3h6.3l5.2-16.6c.8-2.6 1.4-4.9 1.8-7h.1c.2 2.3.5 4.7 1 7.9l2.3 15.7h6.7l-5.1-33z"/><path d="m423.6 523.1c-2.2 0-3.9 1.7-3.9 3.8s1.7 3.8 3.9 3.8 3.9-1.7 3.9-3.8c0-2.2-1.7-3.8-3.9-3.8z"/><path d="m420.5 533.79999h6.3v24.299999h-6.3z"/><path d="m447.4 533.2c-4 0-6.8 2-8.3 4.9.2-1.3.3-3.2.3-4.3h-5.9v24.3h6.3v-11.7c0-4.2 2.5-7.9 5.7-7.9 2.3 0 3 1.5 3 4.1v15.5h6.2v-17c-.1-4.3-1.9-7.9-7.3-7.9z"/><path d="m461.39999 533.79999h6.3v24.299999h-6.3z"/><path d="m464.5 523.1c-2.1 0-3.9 1.7-3.9 3.8s1.7 3.8 3.9 3.8c2.1 0 3.9-1.7 3.9-3.8 0-2.2-1.7-3.8-3.9-3.8z"/><path d="m479.5 540.5c0-1.5 1.2-2.5 3.6-2.5 1.5 0 3.1.2 4.5.6l.2-4.9c-1.5-.2-3-.4-4.4-.4-6.8 0-10.3 3.5-10.3 7.8 0 8.3 9.8 5.8 9.8 10.1 0 1.6-1.6 2.6-4 2.6-1.9 0-3.7-.3-5.2-.7l-.1 5.1c1.6.2 3.3.4 5.1.4 6.6 0 10.8-3.2 10.8-8-.1-7.9-10-6.2-10-10.1z"/><path d="m502.1 524.6-6.3 1.7v7.5h-4.2v4.8h4.2v12.3c0 5.7 1.7 7.6 7 7.6 1.7 0 3.5-.2 5.1-.6v-5c-.9.2-2 .4-3 .4-2.1 0-2.9-.9-2.9-4v-10.6h5.9v-4.8h-5.9v-9.3z"/><path d="m518.6 538.7c.2-1.7.3-3.7.3-4.9h-5.9v24.3h6.3v-9.9c0-6.7 2.2-9.7 6.7-8.7l.3-6.2c-4.2-.4-6.5 2.3-7.7 5.4z"/><path d="m541.8 542c-.8 2.3-1.8 5.5-2.3 7.7-.5-2.2-1.2-4.6-1.9-6.7l-3.3-9.3h-6.9l8.9 24.3-.8 2.3c-1.3 3.6-2.6 4.5-4.7 4.5-1.2 0-2.2-.2-3.3-.5l-.4 5.4c1 .2 2.3.4 3.4.4 5.6 0 8.1-2.3 11-9.9l10-26.5h-6.7z"/><path d="m576.2 533.3c-7.4 0-12.4 5.5-12.4 13 0 8.6 4.4 12.2 11.3 12.2 7.3 0 12.4-5.5 12.4-13.1 0-8.3-4.4-12.1-11.3-12.1zm-.5 19.9c-3.6 0-5.4-2.5-5.4-7.5s2.7-7.1 5.5-7.1c3.7 0 5.3 2.5 5.3 7.2 0 4.9-2.4 7.4-5.4 7.4z"/><path d="m593.8 531.8v2h-4.2v4.8h4.2v19.4h6.2v-19.4h5.7v-4.8h-5.7v-2.1c0-3.2 1.2-4.6 4-4.6.9 0 2.1.1 3 .4l.4-5.1c-1.3-.3-2.6-.4-4-.4-6.5 0-9.6 3.2-9.6 9.8z"/><path d="m620.5 525.09998h6.4v33h-6.4z"/><path d="m647.6 533.2c-4 0-6.8 2-8.3 4.9.2-1.3.3-3.2.3-4.3h-5.9v24.3h6.3v-11.7c0-4.2 2.5-7.9 5.7-7.9 2.3 0 3 1.5 3 4.1v15.5h6.2v-17c-.1-4.3-1.9-7.9-7.3-7.9z"/><path d="m672.2 544.9c-.6 1.7-1.1 3.5-1.5 5.2h-.1c-.4-1.8-1-3.7-1.6-5.4l-3.9-10.9h-6.8l9 24.3h6.4l9.1-24.3h-6.6z"/><path d="m696 533.2c-7.3 0-11.4 5.5-11.4 12.9 0 8.5 4.3 12.4 12 12.4 3 0 6.1-.5 8.7-1.6l-.6-4.8c-2.1 1-4.7 1.5-7.1 1.5-4.5 0-6.7-2.2-6.7-6.7h15c.1-1 .2-2 .2-2.8.1-6-3.1-10.9-10.1-10.9zm-5 9.5c.3-2.9 2.2-4.8 4.7-4.8 2.6 0 4.3 1.8 4.2 4.8z"/><path d="m716.5 540.5c0-1.5 1.2-2.5 3.6-2.5 1.5 0 3.1.2 4.5.6l.2-4.9c-1.5-.2-3-.4-4.4-.4-6.8 0-10.3 3.5-10.3 7.8 0 8.3 9.8 5.8 9.8 10.1 0 1.6-1.6 2.6-4 2.6-1.9 0-3.7-.3-5.2-.7l-.1 5.1c1.6.2 3.3.4 5.1.4 6.6 0 10.8-3.2 10.8-8-.1-7.9-10-6.2-10-10.1z"/><path d="m739.1 524.6-6.3 1.7v7.5h-4.2v4.8h4.2v12.3c0 5.7 1.7 7.6 7 7.6 1.7 0 3.5-.2 5.1-.6v-5c-.9.2-2 .4-3 .4-2.1 0-2.9-.9-2.9-4v-10.6h5.9v-4.8h-5.9v-9.3z"/><path d="m778.4 533.2c-4.1 0-6.8 2.5-7.9 4.9-.6-2.3-2.4-4.9-6.7-4.9-3.6 0-6.5 1.9-8 4.9h-.1c.2-1.4.3-3.2.3-4.3h-5.9v24.3h6.3v-11.6c0-4.5 2.7-8 5.6-8 2.4 0 2.9 1.8 2.9 4.2v15.4h6.2v-11.6c0-4.7 2.8-8 5.6-8 2.3 0 2.9 1.6 2.9 4.2v15.4h6.3v-16.7c-.3-5.6-2.9-8.2-7.5-8.2z"/><path d="m802 533.2c-7.3 0-11.4 5.5-11.4 12.9 0 8.5 4.3 12.4 12 12.4 3 0 6.1-.5 8.7-1.6l-.6-4.8c-2.1 1-4.7 1.5-7.1 1.5-4.5 0-6.7-2.2-6.7-6.7h15c.1-1 .2-2 .2-2.8.1-6-3-10.9-10.1-10.9zm-4.9 9.5c.3-2.9 2.2-4.8 4.7-4.8 2.6 0 4.3 1.8 4.2 4.8z"/><path d="m831.3 533.2c-4 0-6.8 2-8.3 4.9.2-1.3.3-3.2.3-4.3h-5.9v24.3h6.3v-11.7c0-4.2 2.5-7.9 5.7-7.9 2.3 0 3 1.5 3 4.1v15.5h6.2v-17c0-4.3-1.8-7.9-7.3-7.9z"/><path d="m852.7 524.6-6.3 1.7v7.5h-4.2v4.8h4.2v12.3c0 5.7 1.7 7.6 7 7.6 1.7 0 3.5-.2 5.1-.6v-5c-.9.2-2 .4-3 .4-2.1 0-2.9-.9-2.9-4v-10.6h5.9v-4.8h-5.9v-9.3z"/></g><path d="m215.8 450c-16.3 6-13.7 21.4-13.7 21.4.7-2.3 5.8-12.4 15.5-14.8-10.8 11.1-7.7 24.9-7.7 24.9.4-1.8 3.4-15.9 14.2-18.9-6.7 8.8-4 20.1-3.3 22.5 0-4.4 4.4-12 7.1-15.4 2.7 5.7 2.4 16.5 2.4 16.5h-2l2 12.9h-1.6l1.3 12.9h-1.3l1.7 16.5-5.8 3.1v.8h16.2v-.8l-5.8-3.1 1.7-16.5h-1.3l1.5-12.9h-1.6l2-12.9h-2s-.4-10.9 2.4-16.5c2.7 3.5 7.1 11.1 7.1 15.4.7-2.4 3.4-13.8-3.3-22.5 10.7 3 13.8 17.1 14.2 18.9 0 0 3.1-13.8-7.8-24.9 9.7 2.4 14.7 12.5 15.5 14.8 0 0 2.6-15.3-13.7-21.4.3 0 1-.2 2.2-.2 3.6 0 8.9 1.5 12.6 3.3 0 0-3.6-9.2-17.6-9.2-.6 0-1 0-1 0s.5-3.5 6.9-3.5c2.1 0 3.9.3 3.9.3s-3.7-3.4-9.2-3.4c-6.4 0-10.5 5.1-11.2 5.8-2.8-2 .6-5.3 2-6.3 0 0-.5-.3-1.4-.3-1 0-2 .6-2.3 1 0 0-.3-2.7 2.1-3.8-1.7 0-3.9 1.6-3.9 2.2 0-.5-2.2-2.2-3.9-2.2 2.4 1.1 2.1 3.8 2.1 3.8-.3-.4-1.3-1-2.3-1-.8 0-1.4.3-1.4.3 1.4.9 4.8 4.2 2 6.3-.7-.7-4.8-5.8-11.2-5.8-5.5 0-9.2 3.4-9.2 3.4s1.7-.3 3.9-.3c6.4 0 6.9 3.5 6.9 3.5s-.5 0-1 0c-14 0-17.6 9.2-17.6 9.2 3.7-1.7 9.1-3.3 12.6-3.3 1.1 0 1.8.2 2.1.2m64.5 71.8c-18.6 0-47.5 19.1-47.5 19.1h-.1s-29-19.1-47.5-19.1c-10 0-15.1 3.5-16.7 4.9 2.5-1.5 9.7-1.4 9.7-1.4 6.4 0 15.5 2.3 22.2 5.5 14.7 7 26.2 13.9 26.2 13.9l.1.1-14.3 9.1s-4.9-5.8-9.2-5.8c-2.8 0-3.3 1.6-3.3 2.4 0 .7.4 2.2 2.3 2.2 1.8 0 1.9-1.3 1.9-1.7.2.1.4.1.7.4.2.3 3.1 4.8 3.1 4.8s-9.1 5-9.7 5c-.5 0-1.4-1.1-2.2-1.1-.9 0-.9.8-.9.9 0 .5 2.2 4.3 5.4 4.3.5 0 2.1.1 3-.2 3.5-1.3 7.4-3.3 8.2-3.7 0 0 3.1 3.9 5.3 3.9h1.1c1.1 0 2.3-.3 2.3-.3s1.7 1.2 2.9 1.2c1.3 0 2.7-.7 2.7-2.2s-1-2.4-2.3-2.4-2 1.1-2 1.6c-.3 0-.6 0-.6 0l-4.4-4.7 16.2-10 16.2 10-4.4 4.7s-.2 0-.6 0c0-.5-.7-1.6-2-1.6s-2.3 1-2.3 2.4 1.4 2.2 2.7 2.2 2.9-1.2 2.9-1.2 1.2.3 2.3.3h1.1c2.2 0 5.3-3.9 5.3-3.9.9.5 4.8 2.4 8.2 3.7.9.3 2.5.2 3 .2 3.2 0 5.4-3.8 5.4-4.3 0-.1 0-.9-.9-.9s-1.8 1.1-2.2 1.1c-.6 0-9.7-5-9.7-5s2.8-4.5 3.1-4.8c.2-.3.4-.3.7-.4 0 .4.1 1.7 1.9 1.7s2.3-1.5 2.3-2.2-.5-2.4-3.3-2.4c-4.3 0-9.2 5.8-9.2 5.8l-14.3-9.1.1-.1s11.5-6.9 26.2-13.9c6.6-3.2 15.7-5.5 22.2-5.5 0 0 7.1-.1 9.7 1.4-1.9-1.4-6.9-4.9-17-4.9"/><path d="m324 602.1h-182.6v-204.2h182.6zm-172.2-10.4h161.9v-183.4h-161.9z"/></g></svg>